<svg width="133" height="18" viewBox="0 0 133 18" fill="none" xmlns="http://www.w3.org/2000/svg">
<path d="M0 16.8426V0.283864H5.15984C8.11976 0.283864 10.2957 1.02507 11.6876 2.50747C13.0956 3.98987 13.7996 6.02423 13.7996 8.61055C13.7996 11.1496 13.0956 13.1603 11.6876 14.6427C10.2957 16.1093 8.11976 16.8426 5.15984 16.8426H0ZM2.01594 15.1867H5.11185C6.7438 15.1867 8.03976 14.9265 8.99973 14.4061C9.9757 13.8699 10.6717 13.113 11.0877 12.1352C11.5037 11.1417 11.7116 9.96679 11.7116 8.61055C11.7116 7.22277 11.5037 6.03212 11.0877 5.03859C10.6717 4.04507 9.9757 3.28021 8.99973 2.74402C8.03976 2.20783 6.7438 1.93974 5.11185 1.93974H2.01594V15.1867Z" fill="white"/>
<path d="M22.4943 17.1265C21.3743 17.1265 20.3663 16.8742 19.4704 16.3695C18.5744 15.8649 17.8624 15.1552 17.3344 14.2405C16.8224 13.3101 16.5664 12.2219 16.5664 10.9761C16.5664 9.73024 16.8304 8.64998 17.3584 7.7353C17.8864 6.80486 18.5984 6.08731 19.4944 5.58267C20.4063 5.07802 21.4223 4.82569 22.5423 4.82569C23.6622 4.82569 24.6702 5.07802 25.5662 5.58267C26.4621 6.08731 27.1661 6.80486 27.6781 7.7353C28.2061 8.64998 28.4701 9.73024 28.4701 10.9761C28.4701 12.2219 28.2061 13.3101 27.6781 14.2405C27.1501 15.1552 26.4301 15.8649 25.5182 16.3695C24.6222 16.8742 23.6142 17.1265 22.4943 17.1265ZM22.4943 15.4233C23.1822 15.4233 23.8222 15.2577 24.4142 14.9265C25.0062 14.5954 25.4862 14.0986 25.8542 13.4362C26.2221 12.7739 26.4061 11.9538 26.4061 10.9761C26.4061 9.99833 26.2221 9.17828 25.8542 8.51593C25.5022 7.85358 25.0302 7.35682 24.4382 7.02564C23.8462 6.69447 23.2142 6.52888 22.5423 6.52888C21.8543 6.52888 21.2143 6.69447 20.6223 7.02564C20.0303 7.35682 19.5503 7.85358 19.1824 8.51593C18.8144 9.17828 18.6304 9.99833 18.6304 10.9761C18.6304 11.9538 18.8144 12.7739 19.1824 13.4362C19.5503 14.0986 20.0223 14.5954 20.5983 14.9265C21.1903 15.2577 21.8223 15.4233 22.4943 15.4233Z" fill="white"/>
<path d="M37.2249 17.1265C36.089 17.1265 35.065 16.8742 34.153 16.3695C33.2571 15.8491 32.5451 15.1315 32.0171 14.2169C31.5051 13.2864 31.2491 12.2062 31.2491 10.9761C31.2491 9.74601 31.5051 8.67363 32.0171 7.75896C32.5451 6.82852 33.2571 6.11097 34.153 5.60632C35.065 5.0859 36.089 4.82569 37.2249 4.82569C38.6329 4.82569 39.8169 5.18841 40.7768 5.91384C41.7528 6.63927 42.3688 7.60914 42.6248 8.82345H40.5608C40.4008 8.09802 40.0089 7.53818 39.3849 7.14392C38.7609 6.73389 38.0329 6.52888 37.2009 6.52888C36.529 6.52888 35.897 6.69447 35.305 7.02564C34.713 7.35682 34.233 7.85358 33.865 8.51593C33.4971 9.17828 33.3131 9.99833 33.3131 10.9761C33.3131 11.9538 33.4971 12.7739 33.865 13.4362C34.233 14.0986 34.713 14.6032 35.305 14.9502C35.897 15.2814 36.529 15.447 37.2009 15.447C38.0329 15.447 38.7609 15.2498 39.3849 14.8556C40.0089 14.4455 40.4008 13.8699 40.5608 13.1287H42.6248C42.3848 14.3115 41.7768 15.2735 40.8008 16.0147C39.8249 16.7559 38.6329 17.1265 37.2249 17.1265Z" fill="white"/>
<path d="M50.2959 16.8426C49.208 16.8426 48.352 16.5824 47.728 16.062C47.104 15.5416 46.792 14.6032 46.792 13.247V6.78909H44.7281V5.10956H46.792L47.056 2.29457H48.808V5.10956H52.3119V6.78909H48.808V13.247C48.808 13.9882 48.96 14.4929 49.264 14.7609C49.5679 15.0133 50.1039 15.1394 50.8719 15.1394H52.1199V16.8426H50.2959Z" fill="white"/>
<path d="M60.4487 17.1265C59.3288 17.1265 58.3208 16.8742 57.4248 16.3695C56.5289 15.8649 55.8169 15.1552 55.2889 14.2405C54.7769 13.3101 54.5209 12.2219 54.5209 10.9761C54.5209 9.73024 54.7849 8.64998 55.3129 7.7353C55.8409 6.80486 56.5529 6.08731 57.4488 5.58267C58.3608 5.07802 59.3768 4.82569 60.4967 4.82569C61.6167 4.82569 62.6247 5.07802 63.5206 5.58267C64.4166 6.08731 65.1206 6.80486 65.6326 7.7353C66.1606 8.64998 66.4246 9.73024 66.4246 10.9761C66.4246 12.2219 66.1606 13.3101 65.6326 14.2405C65.1046 15.1552 64.3846 15.8649 63.4726 16.3695C62.5767 16.8742 61.5687 17.1265 60.4487 17.1265ZM60.4487 15.4233C61.1367 15.4233 61.7767 15.2577 62.3687 14.9265C62.9607 14.5954 63.4407 14.0986 63.8086 13.4362C64.1766 12.7739 64.3606 11.9538 64.3606 10.9761C64.3606 9.99833 64.1766 9.17828 63.8086 8.51593C63.4567 7.85358 62.9847 7.35682 62.3927 7.02564C61.8007 6.69447 61.1687 6.52888 60.4967 6.52888C59.8088 6.52888 59.1688 6.69447 58.5768 7.02564C57.9848 7.35682 57.5048 7.85358 57.1368 8.51593C56.7689 9.17828 56.5849 9.99833 56.5849 10.9761C56.5849 11.9538 56.7689 12.7739 57.1368 13.4362C57.5048 14.0986 57.9768 14.5954 58.5528 14.9265C59.1448 15.2577 59.7768 15.4233 60.4487 15.4233Z" fill="white"/>
<path d="M69.7076 16.8426V5.10956H71.5315L71.6995 7.35682C72.0675 6.58408 72.6275 5.96904 73.3795 5.5117C74.1315 5.05436 75.0594 4.82569 76.1634 4.82569V6.90737H75.6114C74.9074 6.90737 74.2595 7.03353 73.6675 7.28585C73.0755 7.52241 72.6035 7.93243 72.2515 8.51593C71.8995 9.09943 71.7235 9.90371 71.7235 10.9288V16.8426H69.7076Z" fill="white"/>
<path d="M86.4898 17.1265C84.7939 17.1265 83.3379 16.7717 82.122 16.062C80.906 15.3366 79.97 14.3352 79.314 13.0578C78.6581 11.7646 78.3301 10.2743 78.3301 8.5869C78.3301 6.89948 78.6581 5.40919 79.314 4.11603C79.97 2.82287 80.906 1.81358 82.122 1.08815C83.3379 0.362716 84.7939 0 86.4898 0C88.5058 0 90.1537 0.496762 91.4337 1.49029C92.7296 2.46804 93.5376 3.84794 93.8576 5.62998H90.4737C90.2657 4.73107 89.8177 4.0293 89.1298 3.52465C88.4578 3.00423 87.5618 2.74402 86.4418 2.74402C84.8899 2.74402 83.6739 3.26444 82.7939 4.30528C81.914 5.34611 81.474 6.77332 81.474 8.5869C81.474 10.4005 81.914 11.8277 82.7939 12.8685C83.6739 13.8936 84.8899 14.4061 86.4418 14.4061C87.5618 14.4061 88.4578 14.1696 89.1298 13.6965C89.8177 13.2076 90.2657 12.5373 90.4737 11.6858H93.8576C93.5376 13.3889 92.7296 14.7215 91.4337 15.6835C90.1537 16.6455 88.5058 17.1265 86.4898 17.1265Z" fill="white"/>
<path d="M101.089 17.1265C100.065 17.1265 99.2248 16.9688 98.5688 16.6534C97.9128 16.3222 97.4248 15.8885 97.1048 15.3523C96.7848 14.8161 96.6248 14.2248 96.6248 13.5782C96.6248 12.49 97.0568 11.6069 97.9208 10.9288C98.7848 10.2507 100.081 9.9116 101.809 9.9116H104.833V9.62773C104.833 8.82345 104.601 8.23207 104.137 7.85358C103.673 7.4751 103.097 7.28585 102.409 7.28585C101.785 7.28585 101.241 7.43567 100.777 7.7353C100.313 8.01917 100.025 8.44496 99.9127 9.01269H96.9128C96.9928 8.1611 97.2808 7.4199 97.7768 6.78909C98.2888 6.15828 98.9448 5.67729 99.7447 5.34611C100.545 4.99917 101.441 4.82569 102.433 4.82569C104.129 4.82569 105.465 5.24361 106.441 6.07943C107.417 6.91525 107.905 8.09802 107.905 9.62773V16.8426H105.289L105.001 14.9502C104.649 15.581 104.153 16.1014 103.513 16.5114C102.889 16.9215 102.081 17.1265 101.089 17.1265ZM101.785 14.7609C102.665 14.7609 103.345 14.4771 103.825 13.9094C104.321 13.3416 104.633 12.6399 104.761 11.804H102.145C101.329 11.804 100.745 11.9538 100.393 12.2535C100.041 12.5373 99.8647 12.8922 99.8647 13.318C99.8647 13.7753 100.041 14.1301 100.393 14.3825C100.745 14.6348 101.209 14.7609 101.785 14.7609Z" fill="white"/>
<path d="M111.316 16.8426V5.10956H114.052L114.34 7.30951C114.772 6.55254 115.356 5.95327 116.092 5.5117C116.844 5.05436 117.724 4.82569 118.732 4.82569V8.01917H117.868C117.196 8.01917 116.596 8.12168 116.068 8.32669C115.54 8.5317 115.124 8.88653 114.82 9.39118C114.532 9.89583 114.388 10.5976 114.388 11.4965V16.8426H111.316Z" fill="white"/>
<path d="M126.884 17.1265C125.684 17.1265 124.62 16.8742 123.692 16.3695C122.764 15.8649 122.036 15.1552 121.508 14.2405C120.98 13.3259 120.716 12.2692 120.716 11.0707C120.716 9.8564 120.972 8.77614 121.484 7.82993C122.012 6.88371 122.732 6.15039 123.644 5.62998C124.572 5.09379 125.66 4.82569 126.908 4.82569C128.076 4.82569 129.108 5.07802 130.004 5.58267C130.9 6.08731 131.596 6.7812 132.092 7.66434C132.604 8.5317 132.86 9.50157 132.86 10.5739C132.86 10.7474 132.852 10.9288 132.836 11.118C132.836 11.3073 132.828 11.5044 132.812 11.7094H123.764C123.828 12.6241 124.148 13.3416 124.724 13.862C125.316 14.3825 126.028 14.6427 126.86 14.6427C127.484 14.6427 128.004 14.5086 128.42 14.2405C128.852 13.9567 129.172 13.5939 129.38 13.1524H132.5C132.276 13.8936 131.9 14.5717 131.372 15.1867C130.86 15.786 130.22 16.2591 129.452 16.6061C128.7 16.953 127.844 17.1265 126.884 17.1265ZM126.908 7.28585C126.156 7.28585 125.492 7.49875 124.916 7.92455C124.34 8.33457 123.972 8.96538 123.812 9.81698H129.74C129.692 9.04423 129.404 8.42919 128.876 7.97186C128.348 7.51452 127.692 7.28585 126.908 7.28585Z" fill="white"/>
</svg>

